<?xml version="1.0" ?><svg id="Layer_1" style="enable-background:new 0 0 512 512;" version="1.1" viewBox="0 0 512 512" xml:space="preserve" xmlns="http://www.w3.org/2000/svg" xmlns:xlink="http://www.w3.org/1999/xlink"><g><path d="M349.6,96.1H172v-41H99v55H73.7c-2.6,0-5,1.5-6.1,3.8s-0.9,5.1,0.7,7.2l58.7,75.4v116.2l-39.1,19.8h0h0v111.8H127V506   h318.2V191.1L349.6,96.1z M428.2,489H144v-44.7h176.8l58.9-55.9l-58.9-55.9H144V113.1h197.6v86.3h86.6V489z M162.2,415.2l18.7-53.5   h8.5l18.4,53.5h-9.2l-4.1-12.5h-18.9l-4.1,12.5H162.2z M212.2,415.2l18.7-53.5h8.5l18.4,53.5h-9.2l-4.1-12.5h-18.9l-4.1,12.5H212.2   z M276.7,404.5c2.2,2.9,5.1,4.3,8.8,4.3c3.6,0,6.4-1,8.3-2.9c1.9-1.9,2.8-4.7,2.8-8.3h8.6l0.1,0.2c0.1,5.4-1.7,9.7-5.3,13.1   c-3.6,3.3-8.5,5-14.6,5c-6.2,0-11.3-2.1-15.1-6.3c-3.9-4.2-5.8-9.6-5.8-16.1v-10.2c0-6.5,1.9-11.9,5.7-16.1   c3.8-4.2,8.8-6.3,14.9-6.3c6.3,0,11.2,1.6,14.9,4.8c3.6,3.2,5.4,7.6,5.3,13.2l-0.1,0.2h-8.6c0-3.6-1-6.3-2.9-8.2   c-1.9-1.9-4.8-2.8-8.5-2.8c-3.6,0-6.5,1.4-8.6,4.3c-2.1,2.9-3.2,6.5-3.2,10.9v10.2C273.5,398,274.6,401.7,276.7,404.5z"/><rect height="9.4" width="73" x="99" y="36.4"/><path d="M172,12.8c0-3.8-3-6.8-6.8-6.8h-59.4C102,6,99,9,99,12.8v14.3h73V12.8z"/><rect height="21.3" width="132.6" x="176.1" y="159.6"/><rect height="21.3" width="132.6" x="176.1" y="213.9"/><rect height="21.3" width="231.7" x="176.1" y="268.2"/><polygon points="235.2,374.2 235,374.2 228,395.3 242,395.3  "/><polygon points="185.2,374.2 185,374.2 178,395.3 192.1,395.3  "/></g></svg>