<?xml version="1.0" ?><svg id="Layer_1" style="enable-background:new 0 0 512 512;" version="1.1" viewBox="0 0 512 512" xml:space="preserve" xmlns="http://www.w3.org/2000/svg" xmlns:xlink="http://www.w3.org/1999/xlink"><g><path d="M349.6,96.1H172v-41H99v55H73.7c-2.6,0-5,1.5-6.1,3.8s-0.9,5.1,0.7,7.2l58.7,75.4v116.2l-39.1,19.8v111.8H127V506h318.2   V191.1L349.6,96.1z M428.2,489H144v-44.7h176.8l58.9-55.9l-58.9-55.9H144V113.1h197.6v86.3h86.6V489z M160.4,415.2l18.9-54.2h8.6   l18.7,54.2h-9.3l-4.1-12.7H174l-4.2,12.7H160.4z M226.6,405.6c2.2,2.1,5,3.1,8.6,3.1c3.7,0,6.6-1,8.9-3.1c2.2-2.1,3.4-5.1,3.4-8.9   V361h9v35.7c0,6-2,10.8-5.9,14.2c-4,3.4-9.1,5.1-15.3,5.1c-6.2,0-11.2-1.7-15-5.1c-3.9-3.4-5.8-8.1-5.8-14.2V361h9v35.7   C223.4,400.5,224.4,403.5,226.6,405.6z M264.9,368.2V361h42.3v7.3h-16.8v47h-9v-47H264.9z"/><rect height="9.4" width="73" x="99" y="36.4"/><path d="M172,12.8c0-3.8-3-6.8-6.8-6.8h-59.4C102,6,99,9,99,12.8v14.3h73V12.8z"/><rect height="21.3" width="132.6" x="176.1" y="159.6"/><rect height="21.3" width="132.6" x="176.1" y="213.9"/><rect height="21.3" width="231.7" x="176.1" y="268.2"/><polygon points="183.8,373.6 183.5,373.6 176.5,395 190.7,395  "/></g></svg>