<?xml version="1.0" ?><svg id="Layer_1" style="enable-background:new 0 0 512 512;" version="1.1" viewBox="0 0 512 512" xml:space="preserve" xmlns="http://www.w3.org/2000/svg" xmlns:xlink="http://www.w3.org/1999/xlink"><g><path d="M349.6,96.1H172v-41H99v55H73.7c-2.6,0-5,1.5-6.1,3.8s-0.9,5.1,0.7,7.2l58.7,75.4v116.2l-39.1,19.8l0,0h0v111.8H127V506   h318.2V191.1L349.6,96.1z M428.2,489H144v-44.7h176.8l58.9-55.9l-58.9-55.9H144V113.1h197.6v86.3h86.6V489z M190.7,391.5   c1.9,2.5,2.9,5.4,2.9,8.7c0,5.2-1.7,9.1-5.1,11.8c-3.4,2.7-8,4-14,4H153v-55h18c6.1,0,10.8,1.3,14.2,3.8c3.4,2.5,5.1,6.3,5.1,11.2   c0,2.4-0.7,4.6-2.1,6.5c-1.4,1.9-3.3,3.4-5.7,4.4C186.1,387.5,188.8,389,190.7,391.5z M250.8,376.4L235.7,416h-6.3L214,375.7   l-0.2,0.1V416h-9.2v-55h12.1l15.8,42.3h0.2l15.9-42.3h11.7v55H251v-39.5L250.8,376.4z M274.1,416v-55h21.1c6.1,0,10.8,1.6,14.3,4.7   s5.2,7.3,5.2,12.4c0,5.2-1.7,9.3-5.2,12.4c-3.4,3.1-8.2,4.7-14.3,4.7h-11.9V416H274.1z"/><rect height="9.4" width="73" x="99" y="36.4"/><path d="M172,12.8c0-3.8-3-6.8-6.8-6.8h-59.4C102,6,99,9,99,12.8v14.3h73V12.8z"/><rect height="21.3" width="132.6" x="176.1" y="159.6"/><rect height="21.3" width="132.6" x="176.1" y="213.9"/><rect height="21.3" width="231.7" x="176.1" y="268.2"/><path d="M178.7,382.1c1.6-1.3,2.5-3.3,2.5-5.7c0-2.7-0.9-4.7-2.6-6.1c-1.7-1.3-4.3-2-7.6-2h-8.8v15.8h9.8   C174.8,384.1,177.1,383.5,178.7,382.1z"/><path d="M174.8,391h-0.5h-12.2v17.7h12.4c3.2,0,5.6-0.7,7.3-2.2c1.7-1.4,2.6-3.5,2.6-6.3c0-2.8-0.8-5-2.5-6.6   C180.2,391.9,177.8,391.1,174.8,391z"/><path d="M302.9,385c1.7-1.8,2.6-4.1,2.6-6.9s-0.9-5.1-2.6-7c-1.7-1.9-4.3-2.8-7.7-2.8h-11.9v19.4h11.9   C298.6,387.8,301.2,386.8,302.9,385z"/></g></svg>