<?xml version="1.0" ?><svg id="Layer_1" style="enable-background:new 0 0 512 512;" version="1.1" viewBox="0 0 512 512" xml:space="preserve" xmlns="http://www.w3.org/2000/svg" xmlns:xlink="http://www.w3.org/1999/xlink"><g><path d="M349.6,96.1H172v-41H99v55H73.7c-2.6,0-5,1.5-6.1,3.8s-0.9,5.1,0.7,7.2l58.7,75.4v116.2l-39.1,19.8l0,0h0v111.8H127V506   h318.2V191.1L349.6,96.1z M428.2,489H144v-44.7h176.8l58.9-55.9l-58.9-55.9H144V113.1h197.6v86.3h86.6V489z M173.9,404.5   c2.2,2.9,5.1,4.3,8.8,4.3c3.6,0,6.4-1,8.3-2.9c1.9-1.9,2.8-4.7,2.8-8.3h8.6l0.1,0.2c0.1,5.4-1.7,9.7-5.3,13.1   c-3.6,3.3-8.5,5-14.6,5c-6.2,0-11.3-2.1-15.1-6.3c-3.9-4.2-5.8-9.6-5.8-16.1v-10.2c0-6.5,1.9-11.9,5.7-16.1   c3.8-4.2,8.8-6.3,14.9-6.3c6.3,0,11.2,1.6,14.9,4.8c3.6,3.2,5.4,7.6,5.3,13.2l-0.1,0.2h-8.6c0-3.6-1-6.3-2.9-8.2   c-1.9-1.9-4.8-2.8-8.5-2.8c-3.6,0-6.5,1.4-8.6,4.3c-2.1,2.9-3.2,6.5-3.2,10.9v10.2C170.7,398,171.8,401.7,173.9,404.5z    M213.4,415.2v-53.5h17.7c6.8,0,12.3,2.1,16.5,6.4c4.2,4.2,6.4,9.7,6.4,16.3v8.1c0,6.7-2.1,12.1-6.4,16.3   c-4.2,4.2-9.8,6.3-16.5,6.3H213.4z M301.2,393.9c1.3,2.2,2,4.8,2,8v4.4c0,1.6,0.2,3.1,0.6,4.6c0.4,1.5,1,2.6,1.9,3.4v0.8h-9.2   c-1-0.8-1.6-2.1-1.9-3.8c-0.3-1.7-0.4-3.4-0.4-5.1V402c0-2.7-0.8-4.9-2.4-6.5c-1.6-1.6-3.7-2.4-6.4-2.4H275v22.2h-8.9v-53.5h18.4   c5.9,0,10.5,1.3,13.8,4c3.3,2.7,4.9,6.5,4.9,11.5c0,2.8-0.7,5.1-2.1,7.1c-1.4,2-3.5,3.6-6.3,4.8   C297.7,390.2,299.9,391.7,301.2,393.9z"/><rect height="9.4" width="73" x="99" y="36.4"/><path d="M172,12.8c0-3.8-3-6.8-6.8-6.8h-59.4C102,6,99,9,99,12.8v14.3h73V12.8z"/><rect height="21.3" width="132.6" x="176.1" y="159.6"/><rect height="21.3" width="132.6" x="176.1" y="213.9"/><rect height="21.3" width="231.7" x="176.1" y="268.2"/><path d="M231.1,368.9h-8.7v39.2h8.7c4.3,0,7.7-1.5,10.2-4.4c2.5-2.9,3.8-6.6,3.8-11.2v-8.2c0-4.5-1.3-8.2-3.8-11.1   C238.8,370.3,235.4,368.9,231.1,368.9z"/><path d="M284.5,368.9H275v17h9c3.6,0,6.2-0.7,7.8-2.1c1.6-1.4,2.5-3.5,2.5-6.3c0-2.7-0.8-4.8-2.4-6.3   C290.2,369.7,287.8,368.9,284.5,368.9z"/></g></svg>