<?xml version="1.0" ?><svg id="Layer_1" style="enable-background:new 0 0 512 512;" version="1.1" viewBox="0 0 512 512" xml:space="preserve" xmlns="http://www.w3.org/2000/svg" xmlns:xlink="http://www.w3.org/1999/xlink"><g><path d="M349.6,96.1H172v-41H99v55H73.7c-2.6,0-5,1.5-6.1,3.8s-0.9,5.1,0.7,7.2l58.7,75.4v116.2l-39.1,19.8l0,0h0v111.8H127V506   h318.2V191.1L349.6,96.1z M428.2,489H144v-44.7h176.8l58.9-55.9l-58.9-55.9H144V113.1h197.6v86.3h86.6V489z M182.1,418.5v-60h19.8   c7.6,0,13.8,2.4,18.6,7.1c4.8,4.8,7.1,10.9,7.1,18.3v9.1c0,7.5-2.4,13.6-7.1,18.3c-4.8,4.7-11,7.1-18.6,7.1H182.1z M282.4,391.8   c2.1,2.7,3.1,5.9,3.1,9.5c0,5.6-1.8,9.9-5.5,12.8c-3.7,2.9-8.8,4.4-15.2,4.4h-23.5v-60h19.7c6.6,0,11.8,1.4,15.5,4.1   c3.7,2.7,5.6,6.8,5.6,12.3c0,2.6-0.7,5-2.2,7.1c-1.5,2.1-3.6,3.7-6.2,4.8C277.3,387.4,280.3,389.1,282.4,391.8z"/><rect height="9.4" width="73" x="99" y="36.4"/><path d="M172,12.8c0-3.8-3-6.8-6.8-6.8h-59.4C102,6,99,9,99,12.8v14.3h73V12.8z"/><rect height="21.3" width="132.6" x="176.1" y="159.6"/><rect height="21.3" width="132.6" x="176.1" y="213.9"/><rect height="21.3" width="231.7" x="176.1" y="268.2"/><path d="M269.3,381.5c1.8-1.5,2.7-3.6,2.7-6.2c0-3-0.9-5.2-2.8-6.6c-1.9-1.4-4.7-2.2-8.3-2.2h-9.6v17.2h10.7   C265,383.7,267.5,383,269.3,381.5z"/><path d="M201.9,366.5h-9.8v44h9.8c4.8,0,8.6-1.6,11.5-4.9c2.8-3.3,4.2-7.4,4.2-12.5v-9.2c0-5.1-1.4-9.2-4.2-12.5   C210.6,368.1,206.7,366.5,201.9,366.5z"/><path d="M265,391.2h-0.5h-13.3v19.3h13.5c3.5,0,6.1-0.8,8-2.4c1.9-1.6,2.8-3.9,2.8-6.9c0-3-0.9-5.4-2.8-7.2   C270.9,392.2,268.3,391.3,265,391.2z"/></g></svg>