<?xml version="1.0" ?><svg id="Layer_1" style="enable-background:new 0 0 512 512;" version="1.1" viewBox="0 0 512 512" xml:space="preserve" xmlns="http://www.w3.org/2000/svg" xmlns:xlink="http://www.w3.org/1999/xlink"><g><path d="M349.6,96.1H172v-41H99v55H73.7c-2.6,0-5,1.5-6.1,3.8s-0.9,5.1,0.7,7.2l58.7,75.4v116.2l-39.1,19.8l0,0h0v111.8H127V506   h318.2V191.1L349.6,96.1z M428.2,489H144v-44.7h176.8l58.9-55.9l-58.9-55.9H144V113.1h197.6v86.3h86.6V489z M153.9,415.2v-53.5   h17.7c6.8,0,12.3,2.1,16.5,6.4c4.2,4.2,6.4,9.7,6.4,16.3v8.1c0,6.7-2.1,12.1-6.4,16.3c-4.2,4.2-9.8,6.3-16.5,6.3H153.9z    M251.5,376.8l-14.7,38.4h-6.1l-15-39.2l-0.2,0.1v39.1h-8.9v-53.5h11.7l15.3,41.1h0.2l15.5-41.1h11.4v53.5h-8.9v-38.4L251.5,376.8z    M285,404.7c2.4,2.8,5.4,4.2,9.2,4.2c2.9,0,5.1-0.3,6.8-1c1.7-0.6,2.9-1.4,3.8-2.4v-11.1h-11.2v-6.7h20.1V408   c-1.5,2.1-3.8,3.9-7,5.6c-3.2,1.6-7.4,2.4-12.5,2.4c-6.3,0-11.5-2-15.6-6.1c-4.1-4.1-6.1-9.3-6.1-15.8v-11.2c0-6.5,2-11.7,5.9-15.8   c3.9-4.1,9-6.1,15.2-6.1c6.2,0,11.1,1.6,14.5,4.7c3.5,3.1,5.2,7.2,5.1,12.3l-0.1,0.2h-8.5c0-3-0.9-5.4-2.8-7.3   c-1.9-1.8-4.6-2.8-8.1-2.8c-3.7,0-6.7,1.4-8.9,4.1c-2.3,2.8-3.4,6.3-3.4,10.5V394C281.5,398.4,282.7,401.9,285,404.7z"/><rect height="9.4" width="73" x="99" y="36.4"/><path d="M172,12.8c0-3.8-3-6.8-6.8-6.8h-59.4C102,6,99,9,99,12.8v14.3h73V12.8z"/><rect height="21.3" width="132.6" x="176.1" y="159.6"/><rect height="21.3" width="132.6" x="176.1" y="213.9"/><rect height="21.3" width="231.7" x="176.1" y="268.2"/><path d="M171.5,368.9h-8.7v39.2h8.7c4.3,0,7.7-1.5,10.2-4.4c2.5-2.9,3.8-6.6,3.8-11.2v-8.2c0-4.5-1.3-8.2-3.8-11.1   C179.2,370.3,175.8,368.9,171.5,368.9z"/></g></svg>