<?xml version="1.0" ?><svg id="Layer_1" style="enable-background:new 0 0 512 512;" version="1.1" viewBox="0 0 512 512" xml:space="preserve" xmlns="http://www.w3.org/2000/svg" xmlns:xlink="http://www.w3.org/1999/xlink"><g><path d="M349.6,96.1H172v-41H99v55H73.7c-2.6,0-5,1.5-6.1,3.8s-0.9,5.1,0.7,7.2l58.7,75.4v116.2l-39.1,19.8h0h0v111.8H127V506   h318.2V191.1L349.6,96.1z M428.2,489H144v-44.7h176.8l58.9-55.9l-58.9-55.9H144V113.1h197.6v86.3h86.6V489z M161,415.2v-53.5h17.7   c6.8,0,12.3,2.1,16.5,6.4c4.2,4.2,6.4,9.7,6.4,16.3v8.1c0,6.7-2.1,12.1-6.4,16.3c-4.2,4.2-9.8,6.3-16.5,6.3H161z M211.9,393.3v-9.6   c0-6.5,2-11.9,6-16.2c4-4.3,9.2-6.5,15.6-6.5c6.5,0,11.9,2.2,16,6.5c4.1,4.3,6.2,9.7,6.2,16.2v9.6c0,6.5-2.1,12-6.1,16.2   c-4.1,4.3-9.4,6.4-16,6.4c-6.4,0-11.6-2.1-15.6-6.4C213.9,405.2,211.9,399.8,211.9,393.3z M277.9,404.5c2.2,2.9,5.1,4.3,8.8,4.3   c3.6,0,6.4-1,8.3-2.9c1.9-1.9,2.8-4.7,2.8-8.3h8.6l0.1,0.2c0.1,5.4-1.7,9.7-5.3,13.1s-8.5,5-14.6,5c-6.2,0-11.3-2.1-15.1-6.3   c-3.9-4.2-5.8-9.6-5.8-16.1v-10.2c0-6.5,1.9-11.9,5.7-16.1s8.8-6.3,14.9-6.3c6.3,0,11.2,1.6,14.9,4.8c3.6,3.2,5.4,7.6,5.3,13.2   l-0.1,0.2h-8.6c0-3.6-1-6.3-2.9-8.2c-1.9-1.9-4.8-2.8-8.5-2.8c-3.6,0-6.5,1.4-8.6,4.3c-2.1,2.9-3.2,6.5-3.2,10.9v10.2   C274.7,398,275.7,401.7,277.9,404.5z"/><rect height="9.4" width="73" x="99" y="36.4"/><path d="M172,12.8c0-3.8-3-6.8-6.8-6.8h-59.4C102,6,99,9,99,12.8v14.3h73V12.8z"/><rect height="21.3" width="132.6" x="176.1" y="159.6"/><rect height="21.3" width="132.6" x="176.1" y="213.9"/><rect height="21.3" width="231.7" x="176.1" y="268.2"/><path d="M243.2,404.4c2.4-2.9,3.5-6.6,3.5-11.1v-9.7c0-4.5-1.2-8.1-3.6-11s-5.6-4.3-9.7-4.3c-3.9,0-7,1.4-9.3,4.3   c-2.3,2.9-3.4,6.5-3.4,11v9.7c0,4.5,1.1,8.2,3.4,11.1s5.4,4.3,9.3,4.3C237.6,408.7,240.8,407.2,243.2,404.4z"/><path d="M178.7,368.9H170v39.2h8.7c4.3,0,7.7-1.5,10.2-4.4c2.5-2.9,3.8-6.6,3.8-11.2v-8.2c0-4.5-1.3-8.2-3.8-11.1   C186.4,370.3,183,368.9,178.7,368.9z"/></g></svg>