<?xml version="1.0" ?><svg id="Layer_1" style="enable-background:new 0 0 512 512;" version="1.1" viewBox="0 0 512 512" xml:space="preserve" xmlns="http://www.w3.org/2000/svg" xmlns:xlink="http://www.w3.org/1999/xlink"><g><path d="M349.6,96.1H172v-41H99v55H73.7c-2.6,0-5,1.5-6.1,3.8s-0.9,5.1,0.7,7.2l58.7,75.4v116.2l-39.1,19.8v111.8H127V506h318.2   V191.1L349.6,96.1z M428.2,489H144v-44.7h176.8l58.9-55.9l-58.9-55.9H144V113.1h197.6v86.3h86.6V489z M144.2,412.8v-48.6h16.1   c6.2,0,11.2,1.9,15,5.8c3.9,3.9,5.8,8.8,5.8,14.9v7.4c0,6.1-1.9,11-5.8,14.9c-3.9,3.8-8.9,5.7-15,5.7H144.2z M190.5,392.8v-8.7   c0-5.9,1.8-10.8,5.5-14.8c3.6-3.9,8.4-5.9,14.2-5.9c5.9,0,10.8,2,14.5,5.9c3.7,3.9,5.6,8.8,5.6,14.8v8.7c0,5.9-1.9,10.9-5.6,14.8   c-3.7,3.9-8.6,5.9-14.5,5.9c-5.8,0-10.5-2-14.2-5.9C192.3,403.7,190.5,398.8,190.5,392.8z M250.5,403.1c2,2.6,4.6,3.9,8,3.9   c3.3,0,5.8-0.9,7.6-2.6c1.7-1.7,2.6-4.2,2.6-7.5h7.8l0.1,0.2c0.1,4.9-1.5,8.9-4.8,11.9c-3.3,3-7.7,4.5-13.3,4.5   c-5.7,0-10.2-1.9-13.8-5.7c-3.5-3.8-5.3-8.7-5.3-14.6v-9.2c0-5.9,1.7-10.8,5.2-14.6c3.5-3.8,8-5.8,13.6-5.8   c5.7,0,10.2,1.5,13.5,4.4c3.3,2.9,4.9,6.9,4.8,12l-0.1,0.2h-7.8c0-3.2-0.9-5.7-2.6-7.5c-1.8-1.7-4.3-2.6-7.7-2.6   c-3.3,0-5.9,1.3-7.8,3.9c-1.9,2.6-2.9,5.9-2.9,9.9v9.3C247.5,397.1,248.5,400.5,250.5,403.1z M283.3,364.2h9.5l10.1,18l10.2-18h9.6   l-15,24.1l15.5,24.5h-9.7l-10.5-18.3l-10.5,18.3h-9.6l15.3-24.5L283.3,364.2z"/><rect height="9.4" width="73" x="99" y="36.4"/><path d="M172,12.8c0-3.8-3-6.8-6.8-6.8h-59.4C102,6,99,9,99,12.8v14.3h73V12.8z"/><rect height="21.3" width="132.6" x="176.1" y="159.6"/><rect height="21.3" width="132.6" x="176.1" y="213.9"/><rect height="21.3" width="231.7" x="176.1" y="268.2"/><path d="M160.3,370.7h-7.9v35.6h7.9c3.9,0,7-1.3,9.3-4c2.3-2.6,3.4-6,3.4-10.2v-7.4c0-4.1-1.1-7.5-3.4-10.1   C167.3,372,164.2,370.7,160.3,370.7z"/><path d="M218.9,402.9c2.1-2.6,3.2-6,3.2-10.1V384c0-4-1.1-7.4-3.2-10c-2.2-2.6-5.1-3.9-8.8-3.9c-3.6,0-6.4,1.3-8.5,3.9   c-2.1,2.6-3.1,5.9-3.1,10v8.8c0,4.1,1,7.4,3.1,10.1s4.9,3.9,8.4,3.9C213.8,406.8,216.8,405.5,218.9,402.9z"/></g></svg>