<?xml version="1.0" ?><svg id="Layer_1" style="enable-background:new 0 0 512 512;" version="1.1" viewBox="0 0 512 512" xml:space="preserve" xmlns="http://www.w3.org/2000/svg" xmlns:xlink="http://www.w3.org/1999/xlink"><g><path d="M349.6,96.1H172v-41H99v55H73.7c-2.6,0-5,1.5-6.1,3.8s-0.9,5.1,0.7,7.2l58.7,75.4v116.2l-39.1,19.8l0,0h0v111.8H127V506   h318.2V191.1L349.6,96.1z M428.2,489H144v-44.7h176.8l58.9-55.9l-58.9-55.9H144V113.1h197.6v86.3h86.6V489z M198.9,383.9v7.4h-21.5   v17.4h25.4v7.3h-34.6v-55h34.3v7.4h-25.1v15.5H198.9z M209.9,361h10.8l11.5,20.3l11.6-20.3h10.9l-16.9,27.3l17.6,27.7h-11   l-11.9-20.7L220.4,416h-10.9l17.3-27.7L209.9,361z M295.5,383.9v7.4H274v17.4h25.4v7.3h-34.6v-55h34.3v7.4H274v15.5H295.5z"/><rect height="9.4" width="73" x="99" y="36.4"/><path d="M172,12.8c0-3.8-3-6.8-6.8-6.8h-59.4C102,6,99,9,99,12.8v14.3h73V12.8z"/><rect height="21.3" width="132.6" x="176.1" y="159.6"/><rect height="21.3" width="132.6" x="176.1" y="213.9"/><rect height="21.3" width="231.7" x="176.1" y="268.2"/></g></svg>