<?xml version="1.0" ?><svg id="Layer_1" style="enable-background:new 0 0 512 512;" version="1.1" viewBox="0 0 512 512" xml:space="preserve" xmlns="http://www.w3.org/2000/svg" xmlns:xlink="http://www.w3.org/1999/xlink"><g><path d="M349.6,96.1H172v-41H99v55H73.7c-2.6,0-5,1.5-6.1,3.8s-0.9,5.1,0.7,7.2l58.7,75.4v116.2l-39.1,19.8v111.8H127V506h318.2   V191.1L349.6,96.1z M428.2,489H144v-44.7h176.8l58.9-55.9l-58.9-55.9H144V113.1h197.6v86.3h86.6V489z M181,385.5v6.5h-19.6v20.7   h-8.1v-48.6h31.1v6.5h-23v14.9H181z M224.1,406.3v6.5h-30.9v-48.6h8.1v42.1H224.1z M229.6,412.8l17-48.6h7.7l16.8,48.6h-8.4   l-3.7-11.3h-17.2l-3.7,11.3H229.6z M288.2,403.1c2,2.6,4.6,3.9,8,3.9c3.3,0,5.8-0.9,7.6-2.6c1.7-1.7,2.6-4.2,2.6-7.5h7.8l0.1,0.2   c0.1,4.9-1.5,8.9-4.8,11.9c-3.3,3-7.7,4.5-13.3,4.5c-5.7,0-10.2-1.9-13.8-5.7c-3.5-3.8-5.3-8.7-5.3-14.6v-9.2   c0-5.9,1.7-10.8,5.2-14.6c3.5-3.8,8-5.8,13.6-5.8c5.7,0,10.2,1.5,13.5,4.4c3.3,2.9,4.9,6.9,4.8,12l-0.1,0.2h-7.8   c0-3.2-0.9-5.7-2.6-7.5c-1.8-1.7-4.3-2.6-7.7-2.6c-3.3,0-5.9,1.3-7.8,3.9c-1.9,2.6-2.9,5.9-2.9,9.9v9.3   C285.3,397.1,286.3,400.5,288.2,403.1z"/><rect height="9.4" width="73" x="99" y="36.4"/><path d="M172,12.8c0-3.8-3-6.8-6.8-6.8h-59.4C102,6,99,9,99,12.8v14.3h73V12.8z"/><rect height="21.3" width="132.6" x="176.1" y="159.6"/><rect height="21.3" width="132.6" x="176.1" y="213.9"/><rect height="21.3" width="231.7" x="176.1" y="268.2"/><polygon points="250.5,375.5 250.3,375.5 243.9,394.6 256.7,394.6  "/></g></svg>