<?xml version="1.0" ?><svg id="Layer_1" style="enable-background:new 0 0 512 512;" version="1.1" viewBox="0 0 512 512" xml:space="preserve" xmlns="http://www.w3.org/2000/svg" xmlns:xlink="http://www.w3.org/1999/xlink"><g><path d="M349.6,96.1H172v-41H99v55H73.7c-2.6,0-5,1.5-6.1,3.8s-0.9,5.1,0.7,7.2l58.7,75.4v116.2l-39.1,19.8l0,0h0v111.8H127V506   h318.2V191.1L349.6,96.1z M170,385.4v-22h8.3v50H170v-21.3h-22.4v21.3H144v-50h3.6v22H170z M428.2,489H144v-44.7h176.8l58.9-55.9   l-58.9-55.9H144V113.1h197.6v86.3h86.6V489z M185.8,370.2v-6.7h39v6.7h-15.5v43.3h-8.3v-43.3H185.8z M275.4,377.5l-13.8,36h-5.7   l-14-36.6l-0.2,0.1v36.6h-8.3v-50h11l14.4,38.5h0.2l14.5-38.5h10.6v50h-8.3v-35.9L275.4,377.5z M328.3,406.8v6.7h-31.8v-50h8.3   v43.3H328.3z"/><rect height="9.4" width="73" x="99" y="36.4"/><path d="M172,12.8c0-3.8-3-6.8-6.8-6.8h-59.4C102,6,99,9,99,12.8v14.3h73V12.8z"/><rect height="21.3" width="132.6" x="176.1" y="159.6"/><rect height="21.3" width="132.6" x="176.1" y="213.9"/><rect height="21.3" width="231.7" x="176.1" y="268.2"/></g></svg>