<?xml version="1.0" ?><svg id="Layer_1" style="enable-background:new 0 0 512 512;" version="1.1" viewBox="0 0 512 512" xml:space="preserve" xmlns="http://www.w3.org/2000/svg" xmlns:xlink="http://www.w3.org/1999/xlink"><g><path d="M349.6,96.1H172v-41H99v55H73.7c-2.6,0-5,1.5-6.1,3.8s-0.9,5.1,0.7,7.2l58.7,75.4v116.2l-39.1,19.8l0,0h0v111.8H127V506   h318.2V191.1L349.6,96.1z M144,399.7h6.4c0,3.1,0.7,5.4,2.2,6.8c1.5,1.5,3.5,2.2,6.2,2.2c2.4,0,4.3-0.9,5.8-2.7   c1.5-1.8,2.3-4.2,2.3-7.1V361h9v37.9c0,5.2-1.6,9.4-4.7,12.4c-3.2,3.1-7.3,4.6-12.3,4.6c-5.3,0-9.6-1.4-12.7-4.1   c-0.8-0.7-1.5-1.5-2.1-2.4V399.7z M428.2,489H144v-44.7h176.8l58.9-55.9l-58.9-55.9H144V113.1h197.6v86.3h86.6V489z M184.1,415.2   L203,361h8.6l18.7,54.2H221l-4.1-12.7h-19.2l-4.2,12.7H184.1z M231.3,361h9.6l12.9,39.5l1,3.9h0.2l0.9-3.9l13-39.6h9.6l-19.4,54.2   h-8.6L231.3,361z M279.8,415.2l18.9-54.2h8.6l18.7,54.2h-9.3l-4.1-12.7h-19.2l-4.2,12.7H279.8z"/><rect height="9.4" width="73" x="99" y="36.4"/><path d="M172,12.8c0-3.8-3-6.8-6.8-6.8h-59.4C102,6,99,9,99,12.8v14.3h73V12.8z"/><rect height="21.3" width="132.6" x="176.1" y="159.6"/><rect height="21.3" width="132.6" x="176.1" y="213.9"/><rect height="21.3" width="231.7" x="176.1" y="268.2"/><polygon points="207.4,373.6 207.2,373.6 200.1,395 214.4,395  "/><polygon points="303.2,373.6 302.9,373.6 295.9,395 310.1,395  "/></g></svg>