<?xml version="1.0" ?><svg id="Layer_1" style="enable-background:new 0 0 512 512;" version="1.1" viewBox="0 0 512 512" xml:space="preserve" xmlns="http://www.w3.org/2000/svg" xmlns:xlink="http://www.w3.org/1999/xlink"><g><path d="M349.6,96.1H172v-41H99v55H73.7c-2.6,0-5,1.5-6.1,3.8s-0.9,5.1,0.7,7.2l58.7,75.4v116.2l-39.1,19.8l0,0h0v111.8H127V506   h318.2V191.1L349.6,96.1z M428.2,489H144v-44.7h176.8l58.9-55.9l-58.9-55.9H144V113.1h197.6v86.3h86.6V489z M187.8,401.2l0.1-0.2   h9.4c0,3.3,0.8,5.8,2.4,7.3c1.6,1.6,3.8,2.4,6.6,2.4c2.5,0,4.6-1,6.2-2.9c1.6-1.9,2.4-4.5,2.4-7.7v-40.8h9.7v40.8   c0,5.6-1.7,10.1-5.1,13.4c-3.4,3.3-7.8,5-13.2,5c-5.7,0-10.3-1.5-13.7-4.4C189.3,411.1,187.7,406.8,187.8,401.2z M267.5,396.7   c-1.7-1.5-4.8-2.9-9.2-4.2c-6.3-1.7-11.1-4-14.5-6.8c-3.4-2.8-5.1-6.5-5.1-11c0-4.7,1.9-8.6,5.6-11.6c3.7-3,8.5-4.6,14.4-4.6   c6.3,0,11.3,1.7,15.1,5.1c3.8,3.4,5.6,7.6,5.5,12.5l-0.1,0.2h-9.4c0-3.1-1-5.5-3.1-7.3c-2-1.8-4.8-2.7-8.2-2.7   c-3.3,0-5.8,0.8-7.6,2.3c-1.8,1.5-2.7,3.6-2.7,6c0,2.2,1,4.1,2.9,5.5c1.9,1.5,5.2,2.8,9.7,4.1c6.1,1.7,10.8,4,14,7   c3.2,3,4.8,6.7,4.8,11.3c0,4.8-1.9,8.7-5.7,11.6c-3.8,2.9-8.8,4.3-14.9,4.3c-5.9,0-11.1-1.6-15.5-4.7c-4.4-3.2-6.5-7.6-6.4-13.3   l0.1-0.2h9.4c0,3.5,1.2,6.1,3.6,7.9c2.4,1.8,5.4,2.7,8.8,2.7c3.4,0,6.1-0.7,8-2.2c1.9-1.5,2.9-3.4,2.9-5.9   C270,400.2,269.2,398.2,267.5,396.7z"/><rect height="9.4" width="73" x="99" y="36.4"/><path d="M172,12.8c0-3.8-3-6.8-6.8-6.8h-59.4C102,6,99,9,99,12.8v14.3h73V12.8z"/><rect height="21.3" width="132.6" x="176.1" y="159.6"/><rect height="21.3" width="132.6" x="176.1" y="213.9"/><rect height="21.3" width="231.7" x="176.1" y="268.2"/></g></svg>