<?xml version="1.0" ?><svg id="Layer_1" style="enable-background:new 0 0 512 512;" version="1.1" viewBox="0 0 512 512" xml:space="preserve" xmlns="http://www.w3.org/2000/svg" xmlns:xlink="http://www.w3.org/1999/xlink"><g><path d="M349.6,96.1H172v-41H99v55H73.7c-2.6,0-5,1.5-6.1,3.8s-0.9,5.1,0.7,7.2l58.7,75.4v116.2l-39.1,19.8l0,0h0v111.8H127V506   h318.2V191.1L349.6,96.1z M428.2,489H144v-44.7h176.8l58.9-55.9l-58.9-55.9H144V113.1h197.6v86.3h86.6V489z M197.7,376.8L183,415.2   h-6.1l-15-39.2l-0.2,0.1v39.1h-8.9v-53.5h11.7l15.3,41.1h0.2l15.5-41.1h11.4v53.5h-8.9v-38.4L197.7,376.8z M218.6,393.3v-9.6   c0-6.5,2-11.9,6-16.2c4-4.3,9.2-6.5,15.6-6.5c6.5,0,11.9,2.2,16,6.5c4.1,4.3,6.2,9.7,6.2,16.2v9.6c0,6.5-2.1,12-6.1,16.2   c-4.1,4.3-9.4,6.4-16,6.4c-6.4,0-11.6-2.1-15.6-6.4C220.6,405.2,218.6,399.8,218.6,393.3z M268.2,361.7h9.5l12.7,39l1,3.9h0.2   l0.9-3.8l12.8-39h9.5l-19.1,53.5h-8.5L268.2,361.7z"/><rect height="9.4" width="73" x="99" y="36.4"/><path d="M172,12.8c0-3.8-3-6.8-6.8-6.8h-59.4C102,6,99,9,99,12.8v14.3h73V12.8z"/><rect height="21.3" width="132.6" x="176.1" y="159.6"/><rect height="21.3" width="132.6" x="176.1" y="213.9"/><rect height="21.3" width="231.7" x="176.1" y="268.2"/><path d="M249.9,404.4c2.4-2.9,3.5-6.6,3.5-11.1v-9.7c0-4.5-1.2-8.1-3.6-11c-2.4-2.9-5.6-4.3-9.7-4.3c-3.9,0-7,1.4-9.3,4.3   c-2.3,2.9-3.4,6.5-3.4,11v9.7c0,4.5,1.1,8.2,3.4,11.1c2.3,2.9,5.4,4.3,9.3,4.3C244.3,408.7,247.6,407.2,249.9,404.4z"/></g></svg>