<?xml version="1.0" ?><svg id="Layer_1" style="enable-background:new 0 0 512 512;" version="1.1" viewBox="0 0 512 512" xml:space="preserve" xmlns="http://www.w3.org/2000/svg" xmlns:xlink="http://www.w3.org/1999/xlink"><g><path d="M349.6,96.1H172v-41H99v55H73.7c-2.6,0-5,1.5-6.1,3.8s-0.9,5.1,0.7,7.2l58.7,75.4v116.2l-39.1,19.8h0h0v111.8H127V506   h318.2V191.1L349.6,96.1z M428.2,489H144v-44.7h176.8l58.9-55.9l-58.9-55.9H144V113.1h197.6v86.3h86.6V489z M203.1,376.8   l-14.7,38.4h-6.1l-15-39.2l-0.2,0.1v39.1h-8.9v-53.5h11.7l15.3,41.1h0.2l15.5-41.1h11.4v53.5h-8.9v-38.4L203.1,376.8z M225.8,415.2   v-53.5h20.5c5.9,0,10.5,1.5,13.9,4.6c3.3,3,5,7.1,5,12c0,5-1.7,9-5,12.1c-3.3,3-8,4.5-13.9,4.5h-11.6v20.3H225.8z M298.3,393.5   c-1.5-1.5-3.7-2.2-6.7-2.2h-5.9v-7h5.9c2.9,0,5-0.7,6.2-2.2c1.3-1.4,1.9-3.5,1.9-6.1c0-2.3-0.7-4.2-2.1-5.7   c-1.4-1.5-3.4-2.2-5.9-2.2c-2.4,0-4.4,0.7-6,2.1c-1.6,1.4-2.4,3.2-2.4,5.4h-8.6l-0.1-0.2c-0.1-4.1,1.4-7.5,4.7-10.3   c3.3-2.8,7.4-4.2,12.3-4.2c5.2,0,9.3,1.3,12.4,3.8c3,2.6,4.5,6.3,4.5,11.2c0,2.4-0.7,4.7-2,6.7c-1.3,2-3.2,3.6-5.6,4.8   c2.7,1.1,4.8,2.7,6.2,4.9c1.4,2.2,2.2,4.8,2.2,7.8c0,4.9-1.7,8.8-5,11.6c-3.3,2.8-7.6,4.2-12.8,4.2c-4.7,0-8.8-1.3-12.4-4   c-3.5-2.7-5.3-6.3-5.1-10.9l0.1-0.2h8.6c0,2.3,0.8,4.1,2.5,5.7c1.7,1.5,3.8,2.3,6.4,2.3c2.7,0,4.8-0.8,6.4-2.4   c1.6-1.6,2.4-3.7,2.4-6.2C300.6,397.2,299.8,395,298.3,393.5z"/><rect height="9.4" width="73" x="99" y="36.4"/><path d="M172,12.8c0-3.8-3-6.8-6.8-6.8h-59.4C102,6,99,9,99,12.8v14.3h73V12.8z"/><rect height="21.3" width="132.6" x="176.1" y="159.6"/><rect height="21.3" width="132.6" x="176.1" y="213.9"/><rect height="21.3" width="231.7" x="176.1" y="268.2"/><path d="M253.7,385.1c1.7-1.8,2.5-4,2.5-6.7c0-2.7-0.8-5-2.5-6.8c-1.7-1.8-4.1-2.7-7.5-2.7h-11.6v18.9h11.6   C249.6,387.8,252.1,386.9,253.7,385.1z"/></g></svg>