<?xml version="1.0" ?><svg id="Layer_1" style="enable-background:new 0 0 512 512;" version="1.1" viewBox="0 0 512 512" xml:space="preserve" xmlns="http://www.w3.org/2000/svg" xmlns:xlink="http://www.w3.org/1999/xlink"><g><path d="M349.6,96.1H172v-41H99v55H73.7c-2.6,0-5,1.5-6.1,3.8s-0.9,5.1,0.7,7.2l58.7,75.4v116.2l-39.1,19.8l0,0h0v111.8H127V506   h318.2V191.1L349.6,96.1z M428.2,489H144v-44.7h176.8l58.9-55.9l-58.9-55.9H144V113.1h197.6v86.3h86.6V489z M163.3,416v-55h21.1   c6.1,0,10.8,1.6,14.3,4.7s5.2,7.3,5.2,12.4c0,5.2-1.7,9.3-5.2,12.4c-3.4,3.1-8.2,4.7-14.3,4.7h-11.9V416H163.3z M214.9,416v-55   h18.2c7,0,12.6,2.2,17,6.5c4.4,4.4,6.6,10,6.6,16.8v8.3c0,6.9-2.2,12.5-6.6,16.8c-4.4,4.3-10,6.5-17,6.5H214.9z M300.4,385.1v7.4   h-22.2V416h-9.2v-55h35.2v7.4h-26v16.8H300.4z"/><rect height="9.4" width="73" x="99" y="36.4"/><path d="M172,12.8c0-3.8-3-6.8-6.8-6.8h-59.4C102,6,99,9,99,12.8v14.3h73V12.8z"/><rect height="21.3" width="132.6" x="176.1" y="159.6"/><rect height="21.3" width="132.6" x="176.1" y="213.9"/><rect height="21.3" width="231.7" x="176.1" y="268.2"/><path d="M233.1,368.3h-9v40.3h9c4.4,0,7.9-1.5,10.5-4.5c2.6-3,3.9-6.8,3.9-11.5v-8.4c0-4.6-1.3-8.4-3.9-11.4   C241,369.8,237.5,368.3,233.1,368.3z"/><path d="M192.1,385c1.7-1.8,2.6-4.1,2.6-6.9s-0.9-5.1-2.6-7c-1.7-1.9-4.3-2.8-7.7-2.8h-11.9v19.4h11.9   C187.8,387.8,190.4,386.8,192.1,385z"/></g></svg>