<?xml version="1.0" ?><svg id="Layer_1" style="enable-background:new 0 0 512 512;" version="1.1" viewBox="0 0 512 512" xml:space="preserve" xmlns="http://www.w3.org/2000/svg" xmlns:xlink="http://www.w3.org/1999/xlink"><g><path d="M349.6,96.1H172v-41H99v55H73.7c-2.6,0-5,1.5-6.1,3.8s-0.9,5.1,0.7,7.2l58.7,75.4v116.2l-39.1,19.8l0,0h0v111.8H127V506   h318.2V191.1L349.6,96.1z M428.2,489H144v-44.7h176.8l58.9-55.9l-58.9-55.9H144V113.1h197.6v86.3h86.6V489z M161.3,415.2v-53.5   h20.5c5.9,0,10.5,1.5,13.9,4.6c3.3,3,5,7.1,5,12c0,5-1.7,9-5,12.1c-3.3,3-8,4.5-13.9,4.5h-11.6v20.3H161.3z M211.4,415.2v-53.5h8.9   l23.7,38.5l0.2-0.1v-38.4h8.9v53.5h-8.9l-23.7-38.5l-0.2,0.1v38.4H211.4z M277.6,404.7c2.4,2.8,5.4,4.2,9.2,4.2   c2.9,0,5.1-0.3,6.8-1c1.7-0.6,2.9-1.4,3.8-2.4v-11.1h-11.2v-6.7h20.1V408c-1.5,2.1-3.8,3.9-7,5.6c-3.2,1.6-7.4,2.4-12.5,2.4   c-6.3,0-11.5-2-15.6-6.1c-4.1-4.1-6.1-9.3-6.1-15.8v-11.2c0-6.5,2-11.7,5.9-15.8c3.9-4.1,9-6.1,15.2-6.1c6.2,0,11.1,1.6,14.5,4.7   c3.5,3.1,5.2,7.2,5.1,12.3l-0.1,0.2h-8.5c0-3-0.9-5.4-2.8-7.3c-1.9-1.8-4.6-2.8-8.1-2.8c-3.7,0-6.7,1.4-8.9,4.1   c-2.3,2.8-3.4,6.3-3.4,10.5V394C274,398.4,275.2,401.9,277.6,404.7z"/><rect height="9.4" width="73" x="99" y="36.4"/><path d="M172,12.8c0-3.8-3-6.8-6.8-6.8h-59.4C102,6,99,9,99,12.8v14.3h73V12.8z"/><rect height="21.3" width="132.6" x="176.1" y="159.6"/><rect height="21.3" width="132.6" x="176.1" y="213.9"/><rect height="21.3" width="231.7" x="176.1" y="268.2"/><path d="M189.3,385.1c1.7-1.8,2.5-4,2.5-6.7c0-2.7-0.8-5-2.5-6.8c-1.7-1.8-4.1-2.7-7.5-2.7h-11.6v18.9h11.6   C185.1,387.8,187.6,386.9,189.3,385.1z"/></g></svg>