<?xml version="1.0" ?><svg id="Layer_1" style="enable-background:new 0 0 512 512;" version="1.1" viewBox="0 0 512 512" xml:space="preserve" xmlns="http://www.w3.org/2000/svg" xmlns:xlink="http://www.w3.org/1999/xlink"><g><path d="M349.6,96.1H172v-41H99v55H73.7c-2.6,0-5,1.5-6.1,3.8s-0.9,5.1,0.7,7.2l58.7,75.4v116.2l-39.1,19.8l0,0h0v111.8H127V506   h318.2V191.1L349.6,96.1z M428.2,489H144v-44.7h176.8l58.9-55.9l-58.9-55.9H144V113.1h197.6v86.3h86.6V489z M163,416v-55h21.1   c6.1,0,10.8,1.6,14.3,4.7s5.2,7.3,5.2,12.4c0,5.2-1.7,9.3-5.2,12.4c-3.4,3.1-8.2,4.7-14.3,4.7h-11.9V416H163z M214.6,416v-55h21.1   c6.1,0,10.8,1.6,14.3,4.7s5.2,7.3,5.2,12.4c0,5.2-1.7,9.3-5.2,12.4c-3.4,3.1-8.2,4.7-14.3,4.7h-11.9V416H214.6z M261.7,368.3V361   h42.9v7.4h-17V416h-9.2v-47.6H261.7z"/><rect height="9.4" width="73" x="99" y="36.4"/><path d="M172,12.8c0-3.8-3-6.8-6.8-6.8h-59.4C102,6,99,9,99,12.8v14.3h73V12.8z"/><rect height="21.3" width="132.6" x="176.1" y="159.6"/><rect height="21.3" width="132.6" x="176.1" y="213.9"/><rect height="21.3" width="231.7" x="176.1" y="268.2"/><path d="M243.3,385c1.7-1.8,2.6-4.1,2.6-6.9c0-2.8-0.9-5.1-2.6-7c-1.7-1.9-4.3-2.8-7.7-2.8h-11.9v19.4h11.9   C239.1,387.8,241.6,386.8,243.3,385z"/><path d="M191.8,385c1.7-1.8,2.6-4.1,2.6-6.9c0-2.8-0.9-5.1-2.6-7c-1.7-1.9-4.3-2.8-7.7-2.8h-11.9v19.4h11.9   C187.5,387.8,190.1,386.8,191.8,385z"/></g></svg>