<?xml version="1.0" ?><svg id="Layer_1" style="enable-background:new 0 0 512 512;" version="1.1" viewBox="0 0 512 512" xml:space="preserve" xmlns="http://www.w3.org/2000/svg" xmlns:xlink="http://www.w3.org/1999/xlink"><g><path d="M349.6,96.1H172v-41H99v55H73.7c-2.6,0-5,1.5-6.1,3.8s-0.9,5.1,0.7,7.2l58.7,75.4v116.2l-39.1,19.8v111.8H127V506h318.2   V191.1L349.6,96.1z M428.2,489H144v-44.7h176.8l58.9-55.9l-58.9-55.9H144V113.1h197.6v86.3h86.6V489z M186.2,417.6v-58.3h22.4   c6.4,0,11.5,1.7,15.1,5c3.6,3.3,5.5,7.7,5.5,13.1c0,5.5-1.8,9.9-5.5,13.2c-3.6,3.3-8.7,4.9-15.1,4.9H196v22.1H186.2z M269.1,396.7   c-1.7-1.5-4.8-2.9-9.2-4.2c-6.3-1.7-11.1-4-14.5-6.8c-3.4-2.8-5.1-6.5-5.1-11c0-4.7,1.9-8.6,5.6-11.6c3.7-3,8.5-4.6,14.4-4.6   c6.3,0,11.3,1.7,15.1,5.1c3.8,3.4,5.6,7.6,5.5,12.5l-0.1,0.2h-9.4c0-3.1-1-5.5-3.1-7.3c-2-1.8-4.8-2.7-8.2-2.7   c-3.3,0-5.8,0.8-7.6,2.3c-1.8,1.5-2.7,3.6-2.7,6c0,2.2,1,4.1,2.9,5.5c1.9,1.5,5.2,2.8,9.7,4.1c6.1,1.7,10.8,4,14,7   c3.2,3,4.8,6.7,4.8,11.3c0,4.8-1.9,8.7-5.7,11.6c-3.8,2.9-8.8,4.3-14.9,4.3c-5.9,0-11.1-1.6-15.5-4.7c-4.4-3.2-6.5-7.6-6.4-13.3   l0.1-0.2h9.4c0,3.5,1.2,6.1,3.6,7.9c2.4,1.8,5.4,2.7,8.8,2.7c3.4,0,6.1-0.7,8-2.2c1.9-1.5,2.9-3.4,2.9-5.9   C271.6,400.2,270.8,398.2,269.1,396.7z"/><rect height="9.4" width="73" x="99" y="36.4"/><path d="M172,12.8c0-3.8-3-6.8-6.8-6.8h-59.4C102,6,99,9,99,12.8v14.3h73V12.8z"/><rect height="21.3" width="132.6" x="176.1" y="159.6"/><rect height="21.3" width="132.6" x="176.1" y="213.9"/><rect height="21.3" width="231.7" x="176.1" y="268.2"/><path d="M216.7,384.8c1.8-1.9,2.7-4.4,2.7-7.3s-0.9-5.4-2.7-7.4c-1.8-2-4.5-3-8.1-3H196v20.6h12.6   C212.2,387.7,214.9,386.7,216.7,384.8z"/></g></svg>