<?xml version="1.0" ?><svg id="Layer_1" style="enable-background:new 0 0 512 512;" version="1.1" viewBox="0 0 512 512" xml:space="preserve" xmlns="http://www.w3.org/2000/svg" xmlns:xlink="http://www.w3.org/1999/xlink"><g><path d="M349.6,96.1H172v-41H99v55H73.7c-2.6,0-5,1.5-6.1,3.8s-0.9,5.1,0.7,7.2l58.7,75.4v116.2l-39.1,19.8l0,0h0v111.8H127V506   h318.2V191.1L349.6,96.1z M428.2,489H144v-44.7h176.8l58.9-55.9l-58.9-55.9H144V113.1h197.6v86.3h86.6V489z M198.1,394.1   c1.4,2.2,2.1,5,2.1,8.2v4.6c0,1.6,0.2,3.2,0.6,4.7c0.4,1.5,1.1,2.7,2,3.5v0.9h-9.4c-1-0.8-1.6-2.1-1.9-3.9   c-0.3-1.8-0.4-3.5-0.4-5.3v-4.4c0-2.8-0.8-5.1-2.4-6.7c-1.6-1.7-3.8-2.5-6.6-2.5h-10.8V416h-9.2v-55h18.9c6.1,0,10.9,1.4,14.2,4.2   c3.3,2.8,5,6.7,5,11.9c0,2.8-0.7,5.3-2.2,7.3c-1.5,2.1-3.6,3.7-6.4,4.9C194.5,390.2,196.7,391.8,198.1,394.1z M208.9,416l19.2-55   h8.7l19,55h-9.5l-4.2-12.8h-19.5l-4.2,12.8H208.9z M301.1,394.1c1.4,2.2,2.1,5,2.1,8.2v4.6c0,1.6,0.2,3.2,0.6,4.7   c0.4,1.5,1.1,2.7,2,3.5v0.9h-9.4c-1-0.8-1.6-2.1-1.9-3.9c-0.3-1.8-0.4-3.5-0.4-5.3v-4.4c0-2.8-0.8-5.1-2.4-6.7   c-1.6-1.7-3.8-2.5-6.6-2.5H274V416h-9.2v-55h18.9c6.1,0,10.9,1.4,14.2,4.2c3.3,2.8,5,6.7,5,11.9c0,2.8-0.7,5.3-2.2,7.3   c-1.5,2.1-3.6,3.7-6.4,4.9C297.5,390.2,299.7,391.8,301.1,394.1z"/><rect height="9.4" width="73" x="99" y="36.4"/><path d="M172,12.8c0-3.8-3-6.8-6.8-6.8h-59.4C102,6,99,9,99,12.8v14.3h73V12.8z"/><rect height="21.3" width="132.6" x="176.1" y="159.6"/><rect height="21.3" width="132.6" x="176.1" y="213.9"/><rect height="21.3" width="231.7" x="176.1" y="268.2"/><path d="M283.8,368.3H274v17.5h9.3c3.7,0,6.4-0.7,8-2.1c1.7-1.4,2.5-3.6,2.5-6.5c0-2.8-0.8-4.9-2.5-6.5   C289.7,369.1,287.2,368.3,283.8,368.3z"/><polygon points="232.5,373.8 232.3,373.8 225.1,395.5 239.6,395.5  "/><path d="M180.8,368.3h-9.7v17.5h9.3c3.7,0,6.4-0.7,8-2.1c1.7-1.4,2.5-3.6,2.5-6.5c0-2.8-0.8-4.9-2.5-6.5   C186.7,369.1,184.2,368.3,180.8,368.3z"/></g></svg>