<?xml version="1.0" ?><svg id="Layer_1" style="enable-background:new 0 0 512 512;" version="1.1" viewBox="0 0 512 512" xml:space="preserve" xmlns="http://www.w3.org/2000/svg" xmlns:xlink="http://www.w3.org/1999/xlink"><g><path d="M349.6,96.1H172v-41H99v55H73.7c-2.6,0-5,1.5-6.1,3.8s-0.9,5.1,0.7,7.2l58.7,75.4v116.2l-39.1,19.8l0,0h0v111.8H127V506   h318.2V191.1L349.6,96.1z M428.2,489H144v-44.7h176.8l58.9-55.9l-58.9-55.9H144V113.1h197.6v86.3h86.6V489z M201.2,393.9   c1.3,2.2,2,4.8,2,8v4.4c0,1.6,0.2,3.1,0.6,4.6c0.4,1.5,1,2.6,1.9,3.4v0.8h-9.2c-1-0.8-1.6-2.1-1.9-3.8c-0.3-1.7-0.4-3.4-0.4-5.1   V402c0-2.7-0.8-4.9-2.4-6.5c-1.6-1.6-3.7-2.4-6.4-2.4h-10.5v22.2H166v-53.5h18.4c5.9,0,10.5,1.3,13.8,4c3.3,2.7,4.9,6.5,4.9,11.5   c0,2.8-0.7,5.1-2.1,7.1c-1.4,2-3.5,3.6-6.3,4.8C197.7,390.2,199.8,391.7,201.2,393.9z M241.9,396c-1.6-1.4-4.4-2.7-8.4-3.8   c-5.8-1.6-10.2-3.7-13.3-6.3c-3.1-2.6-4.7-6-4.7-10.1c0-4.3,1.7-7.9,5.1-10.6c3.4-2.8,7.8-4.2,13.2-4.2c5.8,0,10.4,1.5,13.9,4.6   c3.5,3.1,5.1,6.9,5,11.5l-0.1,0.2H244c0-2.8-0.9-5.1-2.8-6.7c-1.9-1.7-4.4-2.5-7.5-2.5c-3,0-5.3,0.7-7,2.1   c-1.6,1.4-2.4,3.3-2.4,5.5c0,2.1,0.9,3.8,2.7,5.1c1.8,1.3,4.7,2.6,8.9,3.8c5.6,1.6,9.9,3.7,12.8,6.4c2.9,2.7,4.4,6.2,4.4,10.4   c0,4.4-1.7,8-5.2,10.6c-3.5,2.6-8,4-13.7,4c-5.4,0-10.2-1.4-14.2-4.3c-4-2.9-6-7-5.9-12.2l0.1-0.2h8.6c0,3.2,1.1,5.6,3.3,7.3   c2.2,1.6,4.9,2.4,8.1,2.4c3.2,0,5.6-0.7,7.4-2c1.7-1.3,2.6-3.1,2.6-5.4C244.2,399.2,243.4,397.4,241.9,396z M290.3,396   c-1.6-1.4-4.4-2.7-8.4-3.8c-5.8-1.6-10.2-3.7-13.3-6.3c-3.1-2.6-4.7-6-4.7-10.1c0-4.3,1.7-7.9,5.1-10.6c3.4-2.8,7.8-4.2,13.2-4.2   c5.8,0,10.4,1.5,13.9,4.6c3.5,3.1,5.1,6.9,5,11.5l-0.1,0.2h-8.6c0-2.8-0.9-5.1-2.8-6.7c-1.9-1.7-4.4-2.5-7.5-2.5   c-3,0-5.3,0.7-7,2.1c-1.6,1.4-2.4,3.3-2.4,5.5c0,2.1,0.9,3.8,2.7,5.1c1.8,1.3,4.7,2.6,8.9,3.8c5.6,1.6,9.9,3.7,12.8,6.4   c2.9,2.7,4.4,6.2,4.4,10.4c0,4.4-1.7,8-5.2,10.6s-8,4-13.7,4c-5.4,0-10.2-1.4-14.2-4.3c-4-2.9-6-7-5.9-12.2l0.1-0.2h8.6   c0,3.2,1.1,5.6,3.3,7.3c2.2,1.6,4.9,2.4,8.1,2.4c3.2,0,5.6-0.7,7.4-2c1.7-1.3,2.6-3.1,2.6-5.4C292.7,399.2,291.9,397.4,290.3,396z"/><rect height="9.4" width="73" x="99" y="36.4"/><path d="M172,12.8c0-3.8-3-6.8-6.8-6.8h-59.4C102,6,99,9,99,12.8v14.3h73V12.8z"/><rect height="21.3" width="132.6" x="176.1" y="159.6"/><rect height="21.3" width="132.6" x="176.1" y="213.9"/><rect height="21.3" width="231.7" x="176.1" y="268.2"/><path d="M184.4,368.9h-9.5v17h9c3.6,0,6.2-0.7,7.8-2.1c1.6-1.4,2.5-3.5,2.5-6.3c0-2.7-0.8-4.8-2.4-6.3   C190.1,369.7,187.7,368.9,184.4,368.9z"/></g></svg>