<?xml version="1.0" ?><svg id="Layer_1" style="enable-background:new 0 0 512 512;" version="1.1" viewBox="0 0 512 512" xml:space="preserve" xmlns="http://www.w3.org/2000/svg" xmlns:xlink="http://www.w3.org/1999/xlink"><g><path d="M349.6,96.1H172v-41H99v55H73.7c-2.6,0-5,1.5-6.1,3.8s-0.9,5.1,0.7,7.2l58.7,75.4v116.2l-39.1,19.8l0,0h0v111.8H127V506   h318.2V191.1L349.6,96.1z M428.2,489H144v-44.7h176.8l58.9-55.9l-58.9-55.9H144V113.1h197.6v86.3h86.6V489z M149.3,364.2h9.5   l10.1,18l10.2-18h9.6l-15,24.1l15.5,24.5h-9.7l-10.5-18.3l-10.5,18.3h-9.6l15.3-24.5L149.3,364.2z M228.7,406.3v6.5h-30.9v-48.6   h8.1v42.1H228.7z M261,395.3c-1.4-1.3-4-2.4-7.6-3.5c-5.2-1.4-9.3-3.3-12.1-5.7c-2.8-2.3-4.3-5.4-4.3-9.2c0-3.9,1.6-7.1,4.7-9.7   c3.1-2.5,7.1-3.8,12-3.8c5.3,0,9.5,1.4,12.6,4.2c3.1,2.8,4.7,6.3,4.6,10.4l-0.1,0.2H263c0-2.6-0.9-4.6-2.6-6.1   c-1.7-1.5-4-2.3-6.8-2.3c-2.7,0-4.8,0.6-6.3,1.9c-1.5,1.3-2.2,3-2.2,5c0,1.9,0.8,3.4,2.4,4.6c1.6,1.2,4.3,2.4,8.1,3.5   c5.1,1.4,9,3.4,11.6,5.8c2.7,2.5,4,5.6,4,9.4c0,4-1.6,7.2-4.7,9.6c-3.2,2.4-7.3,3.6-12.5,3.6c-4.9,0-9.2-1.3-12.9-3.9   c-3.7-2.6-5.5-6.3-5.3-11.1l0.1-0.2h7.8c0,2.9,1,5.1,3,6.6c2,1.5,4.5,2.2,7.4,2.2c2.9,0,5.1-0.6,6.7-1.8c1.6-1.2,2.4-2.9,2.4-4.9   C263.2,398.3,262.5,396.6,261,395.3z M278.6,364.2h9.5l10.1,18l10.2-18h9.6l-15,24.1l15.5,24.5h-9.7l-10.5-18.3l-10.5,18.3h-9.6   l15.3-24.5L278.6,364.2z"/><rect height="9.4" width="73" x="99" y="36.4"/><path d="M172,12.8c0-3.8-3-6.8-6.8-6.8h-59.4C102,6,99,9,99,12.8v14.3h73V12.8z"/><rect height="21.3" width="132.6" x="176.1" y="159.6"/><rect height="21.3" width="132.6" x="176.1" y="213.9"/><rect height="21.3" width="231.7" x="176.1" y="268.2"/></g></svg>